<?xml version="1.0" encoding="UTF-8"?>
<svg width="24px" height="24px" viewBox="0 0 24 24" version="1.1" xmlns="http://www.w3.org/2000/svg" xmlns:xlink="http://www.w3.org/1999/xlink">
    <!-- Generator: Sketch 43.2 (39069) - http://www.bohemiancoding.com/sketch -->
    <title>icon-instagram</title>
    <desc>Created with Sketch.</desc>
    <defs></defs>
    <g id="Page-1" stroke="none" stroke-width="1" fill="none" fill-rule="evenodd">
        <g id="Group-13">
            <rect id="Rectangle-113" opacity="0.1" x="0" y="0" width="24" height="24"></rect>
            <g id="Group-2" transform="translate(1.000000, 1.000000)" fill="#EEEEEE">
                <path d="M10.9965298,0 C8.01002976,0 7.6355496,0.0126587302 6.46269643,0.0661746032 C5.2922004,0.119559524 4.49286706,0.305468254 3.7933631,0.577281746 C3.07024405,0.858305556 2.45699405,1.23431349 1.84566468,1.84564286 C1.23433532,2.45701587 0.858327381,3.07026587 0.577303571,3.79338492 C0.305446429,4.49284524 0.119581349,5.29222222 0.0661527778,6.4626746 C0.0126369048,7.63557143 -2.18253968e-05,8.01005159 -2.18253968e-05,10.9965516 C-2.18253968e-05,13.9830079 0.0126369048,14.3574881 0.0661527778,15.5303849 C0.119581349,16.7008373 0.305446429,17.5002143 0.577303571,18.1996746 C0.858327381,18.9227937 1.23433532,19.5360437 1.84566468,20.1474167 C2.45699405,20.758746 3.07024405,21.134754 3.7933631,21.4157778 C4.49286706,21.6875913 5.2922004,21.8735 6.46269643,21.9268849 C7.6355496,21.9804444 8.01002976,21.9930595 10.9965298,21.9930595 C13.9830298,21.9930595 14.3574663,21.9804444 15.5303631,21.9268849 C16.7008591,21.8735 17.5001925,21.6875913 18.1996964,21.4157778 C18.9228155,21.134754 19.5360655,20.758746 20.1473948,20.1474167 C20.7587242,19.5360437 21.1347321,18.9227937 21.415756,18.1996746 C21.6876131,17.5002143 21.8734782,16.7008373 21.9269067,15.5303849 C21.9804226,14.3574881 21.9930377,13.9830079 21.9930377,10.9965516 C21.9930377,8.01005159 21.9804226,7.63557143 21.9269067,6.4626746 C21.8734782,5.29222222 21.6876131,4.49284524 21.415756,3.79338492 C21.1347321,3.07026587 20.7587242,2.45701587 20.1473948,1.84564286 C19.5360655,1.23431349 18.9228155,0.858305556 18.1996964,0.577281746 C17.5001925,0.305468254 16.7008591,0.119559524 15.5303631,0.0661746032 C14.3574663,0.0126587302 13.9830298,0 10.9965298,0 M10.9965298,1.98135317 C13.932744,1.98135317 14.2805099,1.99257143 15.4400496,2.04547619 C16.5122004,2.09436508 17.0944583,2.27350794 17.4819901,2.42410317 C17.9952361,2.6235873 18.3615972,2.86187698 18.746379,3.24670238 C19.1311607,3.63148413 19.369494,3.99780159 19.5689345,4.51109127 C19.7195298,4.89857937 19.8986726,5.4808373 19.9476052,6.5529881 C20.0005099,7.71252778 20.0116845,8.0603373 20.0116845,10.9965516 C20.0116845,13.9327222 20.0005099,14.2805317 19.9476052,15.4400714 C19.8986726,16.5122222 19.7195298,17.0944802 19.5689345,17.4819683 C19.369494,17.9952579 19.1311607,18.3615754 18.746379,18.7463571 C18.3615972,19.1311825 17.9952361,19.3694722 17.4819901,19.5689563 C17.0944583,19.7195516 16.5122004,19.8986944 15.4400496,19.9475833 C14.2806845,20.0004881 13.9329187,20.0117063 10.9965298,20.0117063 C8.06014087,20.0117063 7.712375,20.0004881 6.55300992,19.9475833 C5.48085913,19.8986944 4.89855754,19.7195516 4.51106944,19.5689563 C3.99782341,19.3694722 3.6314623,19.1311825 3.24668056,18.7463571 C2.86189881,18.3615754 2.62356548,17.9952579 2.42408135,17.4819683 C2.27352976,17.0944802 2.0943869,16.5122222 2.04545437,15.4400714 C1.9925496,14.2805317 1.981375,13.9327222 1.981375,10.9965516 C1.981375,8.0603373 1.9925496,7.71252778 2.04545437,6.5529881 C2.0943869,5.4808373 2.27352976,4.89857937 2.42408135,4.51109127 C2.62356548,3.99780159 2.86189881,3.63148413 3.24668056,3.24670238 C3.6314623,2.86187698 3.99782341,2.6235873 4.51106944,2.42410317 C4.89855754,2.27350794 5.48085913,2.09436508 6.55296627,2.04547619 C7.7125496,1.99257143 8.06031548,1.98135317 10.9965298,1.98135317" id="Fill-1"></path>
                <path d="M10.9965298,14.6620397 C8.9721369,14.6620397 7.33099802,13.0209444 7.33099802,10.9965516 C7.33099802,8.97211508 8.9721369,7.33101984 10.9965298,7.33101984 C13.0209226,7.33101984 14.6620179,8.97211508 14.6620179,10.9965516 C14.6620179,13.0209444 13.0209226,14.6620397 10.9965298,14.6620397 M10.9965298,5.34966667 C7.87785516,5.34966667 5.34964484,7.87783333 5.34964484,10.9965516 C5.34964484,14.1152262 7.87785516,16.6433929 10.9965298,16.6433929 C14.1152044,16.6433929 16.6434147,14.1152262 16.6434147,10.9965516 C16.6434147,7.87783333 14.1152044,5.34966667 10.9965298,5.34966667" id="Fill-4"></path>
                <path d="M18.1860905,5.12655437 C18.1860905,5.85534802 17.595277,6.44611786 16.866527,6.44611786 C16.1377333,6.44611786 15.5469198,5.85534802 15.5469198,5.12655437 C15.5469198,4.39776071 16.1377333,3.80699087 16.866527,3.80699087 C17.595277,3.80699087 18.1860905,4.39776071 18.1860905,5.12655437" id="Fill-6"></path>
            </g>
        </g>
    </g>
</svg>