<?xml version="1.0" encoding="UTF-8"?>
<svg width="24px" height="24px" viewBox="0 0 24 24" version="1.1" xmlns="http://www.w3.org/2000/svg" xmlns:xlink="http://www.w3.org/1999/xlink">
    <!-- Generator: Sketch 43.2 (39069) - http://www.bohemiancoding.com/sketch -->
    <title>icon-facebook</title>
    <desc>Created with Sketch.</desc>
    <defs></defs>
    <g id="Page-1" stroke="none" stroke-width="1" fill="none" fill-rule="evenodd">
        <g id="Group-9">
            <rect id="Rectangle-113" opacity="0.1" x="0" y="0" width="24" height="24"></rect>
            <path d="M20.8961131,2 L3.10380445,2 C2.49412672,2 2,2.49412672 2,3.10380445 L2,20.8961131 C2,21.5057159 2.49412672,21.9999925 3.10380445,21.9999925 L12.682624,21.9999925 L12.682624,14.2549271 L10.0762067,14.2549271 L10.0762067,11.2365128 L12.682624,11.2365128 L12.682624,9.01054459 C12.682624,6.42735741 14.2603225,5.02073736 16.5647485,5.02073736 C17.6686279,5.02073736 18.6173152,5.10286701 18.8937534,5.13958555 L18.8937534,7.83922298 L17.2955225,7.83997233 C16.042296,7.83997233 15.7995789,8.4354872 15.7995789,9.30938859 L15.7995789,11.2365128 L18.7885435,11.2365128 L18.3994019,14.2549271 L15.7995789,14.2549271 L15.7995789,21.9999925 L20.8961131,21.9999925 C21.5057159,21.9999925 21.9999176,21.5057159 21.9999176,20.8961131 L21.9999176,3.10380445 C21.9999176,2.49412672 21.5057159,2 20.8961131,2" id="Fill-1" fill="#EEEEEE"></path>
        </g>
    </g>
</svg>